<svg width="70" height="70" viewBox="0 0 70 70" fill="none" xmlns="http://www.w3.org/2000/svg">
<path d="M37.6103 26.25H32.3894C30.6095 26.25 29.1665 27.6929 29.1665 29.4729V58.0271C29.1665 59.8071 30.6095 61.25 32.3894 61.25H37.6103C39.3902 61.25 40.8332 59.8071 40.8332 58.0271V29.4729C40.8332 27.6929 39.3902 26.25 37.6103 26.25Z" stroke="#1ECC99" stroke-width="7" stroke-linecap="round" stroke-linejoin="round"/>
<path d="M58.0272 8.75H52.8064C51.0264 8.75 49.5835 10.1929 49.5835 11.9729V58.0271C49.5835 59.8071 51.0264 61.25 52.8064 61.25H58.0272C59.8072 61.25 61.2502 59.8071 61.2502 58.0271V11.9729C61.2502 10.1929 59.8072 8.75 58.0272 8.75Z" stroke="#1ECC99" stroke-width="7" stroke-linecap="round" stroke-linejoin="round"/>
<path d="M14.5833 61.25C17.805 61.25 20.4167 58.6383 20.4167 55.4167C20.4167 52.195 17.805 49.5833 14.5833 49.5833C11.3617 49.5833 8.75 52.195 8.75 55.4167C8.75 58.6383 11.3617 61.25 14.5833 61.25Z" stroke="#1ECC99" stroke-width="7" stroke-linecap="round" stroke-linejoin="round"/>
</svg>
